<svg xmlns="http://www.w3.org/2000/svg" viewBox="0 0 300 76"><g fill="#e3cca6" text-anchor="middle"><text x="171" y="39" font-family="Georgia,serif" font-size="37" letter-spacing="5">FLORA</text><text x="171" y="65" font-family="Arial,sans-serif" font-size="16" letter-spacing="6">PERFUME</text></g><g fill="none" stroke="#ccb48d" stroke-width="1.5"><path d="M43 51C23 43 23 20 43 32 63 20 63 43 43 51ZM43 51C26 61 10 47 28 42M43 51C60 61 76 47 58 42M43 51V65M43 60C32 57 31 51 31 51M43 56C53 53 56 47 56 47M43 32C29 16 43 6 43 6S57 16 43 32Z"/></g></svg>